<svg xmlns="http://www.w3.org/2000/svg" viewBox="0 0 309.67 101.91"><g id="Capa_2" data-name="Capa 2"><g id="Capa_1-2" data-name="Capa 1"><path d="M28.31,84.31l.7.4c0,4.05.08,8.11,0,12.15-.06,1.94.56,2.6,2.55,2.59q28.22-.09,56.41,0c2.09,0,2.77-.7,2.73-2.73-.09-5.23-.13-10.46,0-15.68.06-2.36-.67-3.14-3.11-3.12C71,78,54.47,78,37.91,78c-.94,0-1.88-.1-3.42-.19.88-1.12,1.33-1.77,1.86-2.35q10-10.82,19.93-21.6Q72.69,36.1,89.06,18.34a5.68,5.68,0,0,0,1.5-3.24c.19-3.56,0-7.13.09-10.7,0-1.61-.68-2.2-2.26-2.17-3.41.06-6.83-.06-10.23.08A4.13,4.13,0,0,0,75.62,3.5C73.34,5.8,71.21,8.24,69,10.61s-4.3,4.54-6.9,7.29c-.19-1.44-.39-2.29-.4-3.13,0-3.32-.09-6.64,0-9.95.06-1.94-.66-2.61-2.61-2.61q-28.33.09-56.66,0C.55,2.21,0,2.91,0,4.71.11,10.1.17,15.49,0,20.88c-.07,2.37.76,2.93,3,2.92,16.73-.08,33.45-.05,50.17,0,.92,0,1.84.12,3.19.21-.78,1-1.17,1.47-1.6,2Q28.06,54.81,1.36,83.72A5.17,5.17,0,0,0,.12,86.79c-.16,3.48,0,7-.09,10.45,0,1.59.53,2.24,2.17,2.2,3.16-.08,6.34.15,9.48-.1a7,7,0,0,0,4.07-1.74c3.24-3.21,6.21-6.69,9.31-10C26.1,86.43,27.23,85.39,28.31,84.31Zm269-66.1c-.82.78-1.7,1.5-2.46,2.33-3.51,3.77-6.91,7.64-10.5,11.32-1.32,1.35-1.52,2.23-.5,4a29.21,29.21,0,0,1-12.7,41.72,28.52,28.52,0,0,1-25.72-.26c-.88-.42-2.54-.73-3-.27-4.75,4.85-9.33,9.86-14,14.84,18.25,14.49,49.35,14.36,68.51-7.36C315.48,63.57,312.13,33.8,297.33,18.21ZM117.48,92a48.24,48.24,0,0,0,27,9.85A50.68,50.68,0,0,0,178.3,91.64c22.76-16.78,27.23-49.95,9.65-72-1.18-1.49-1.87-1.36-3.06-.05-3.44,3.82-7,7.51-10.53,11.28-2.65,2.85-2.62,2.86-.75,6.17a28.73,28.73,0,0,1,1.27,2.69c6.65,14.93-1.53,33.52-17,38.9A30.16,30.16,0,0,1,134,77.12a3.07,3.07,0,0,0-2.73.11C126.63,82,122.18,86.9,117.48,92Zm102.23-8.25a4.71,4.71,0,0,0,.75-.48c4.36-4.67,8.77-9.31,13-14.09a3,3,0,0,0,0-2.77,29,29,0,0,1-4.23-17.8C230.83,27.6,253.45,15,272,24.84c1.4.74,2.34.81,3.4-.54s2.6-2.79,3.9-4.19l9.23-10C272.87-3.07,242.71-5,222.75,14.59,202.4,34.58,203.53,65.83,219.71,83.72ZM109,83.75c4.36-4.67,8.66-9.37,13.08-14,1.19-1.24,1.35-2.12.38-3.61A27.54,27.54,0,0,1,118,50.12a29.51,29.51,0,0,1,43.2-25.23c1.41.72,2.27.59,3.17-.62a22.36,22.36,0,0,1,1.71-1.81q5.74-6.18,11.48-12.38C161-3.53,130.74-4.87,111,15.49,89.86,37.22,94.31,68.75,109,83.75Z"/><path d="M28.31,84.31c-1.08,1.08-2.21,2.12-3.25,3.25-3.1,3.35-6.07,6.83-9.31,10a7,7,0,0,1-4.07,1.74c-3.14.25-6.32,0-9.48.1-1.64,0-2.2-.61-2.17-2.2.08-3.49-.07-7,.09-10.45a5.17,5.17,0,0,1,1.24-3.07Q28,54.79,54.77,25.92c.43-.48.82-1,1.6-2-1.35-.09-2.27-.21-3.19-.21-16.72,0-33.44,0-50.17,0-2.25,0-3.08-.55-3-2.92C.17,15.49.11,10.1,0,4.71c0-1.8.52-2.5,2.41-2.49q28.32.07,56.66,0c1.95,0,2.67.67,2.61,2.61-.1,3.31-.05,6.63,0,10,0,.84.21,1.69.4,3.13,2.6-2.75,4.77-5,6.9-7.29S73.34,5.8,75.62,3.5a4.13,4.13,0,0,1,2.54-1.19c3.4-.14,6.82,0,10.23-.08,1.58,0,2.28.56,2.26,2.17-.05,3.57.1,7.14-.09,10.7a5.68,5.68,0,0,1-1.5,3.24Q72.74,36.14,56.28,53.83q-10,10.79-19.93,21.6c-.53.58-1,1.23-1.86,2.35C36,77.87,37,78,37.91,78c16.56,0,33.12,0,49.67,0,2.44,0,3.17.76,3.11,3.12-.15,5.22-.11,10.45,0,15.68,0,2-.64,2.73-2.73,2.73q-28.2-.1-56.41,0c-2,0-2.61-.65-2.55-2.59.11-4,0-8.1,0-12.15Z"/><path d="M297.33,18.21c14.8,15.59,18.15,45.36-.32,66.28-19.16,21.72-50.26,21.85-68.51,7.36,4.63-5,9.21-10,14-14.84.45-.46,2.11-.15,3,.27a28.52,28.52,0,0,0,25.72.26,29.21,29.21,0,0,0,12.7-41.72c-1-1.73-.82-2.61.5-4,3.59-3.68,7-7.55,10.5-11.32C295.63,19.71,296.51,19,297.33,18.21Z"/><path d="M117.48,92c4.7-5.07,9.15-10,13.75-14.74a3.07,3.07,0,0,1,2.73-.11,30.16,30.16,0,0,0,23.91,1.47c15.48-5.38,23.66-24,17-38.9A28.73,28.73,0,0,0,173.61,37c-1.87-3.31-1.9-3.32.75-6.17,3.5-3.77,7.09-7.46,10.53-11.28,1.19-1.31,1.88-1.44,3.06.05,17.58,22.09,13.11,55.26-9.65,72a50.68,50.68,0,0,1-33.84,10.18A48.24,48.24,0,0,1,117.48,92Z"/><path d="M219.71,83.72c-16.18-17.89-17.31-49.14,3-69.13,20-19.61,50.12-17.66,65.79-4.51l-9.23,10c-1.3,1.4-2.73,2.7-3.9,4.19s-2,1.28-3.4.54C253.45,15,230.83,27.6,229.2,48.58a29,29,0,0,0,4.23,17.8,3,3,0,0,1,0,2.77c-4.24,4.78-8.65,9.42-13,14.09A4.71,4.71,0,0,1,219.71,83.72Z"/><path d="M109,83.75c-14.69-15-19.14-46.53,2-68.26,19.78-20.36,50-19,66.64-5.41q-5.74,6.2-11.48,12.38a22.36,22.36,0,0,0-1.71,1.81c-.9,1.21-1.76,1.34-3.17.62A29.51,29.51,0,0,0,118,50.12a27.54,27.54,0,0,0,4.42,16.06c1,1.49.81,2.37-.38,3.61C117.66,74.38,113.36,79.08,109,83.75Z"/></g></g></svg>