<svg xmlns="http://www.w3.org/2000/svg" viewBox="0 0 377.5 377.5"><defs><style>.cls-1{fill:#fff;}</style></defs><g id="Capa_2" data-name="Capa 2"><g id="Capa_1-2" data-name="Capa 1"><rect class="cls-1" width="377.5" height="377.5"/><path d="M41.94,227.46l.81.46c0,4.7.09,9.41,0,14.1-.07,2.25.65,3,3,3q32.73-.1,65.46,0c2.42,0,3.21-.8,3.17-3.16-.12-6.07-.15-12.14,0-18.19.08-2.75-.77-3.65-3.6-3.63-19.21.11-38.42.06-57.64,0-1.09,0-2.17-.12-4-.22,1-1.3,1.53-2.06,2.15-2.73q11.55-12.54,23.13-25.06,19-20.58,38-41.18a6.67,6.67,0,0,0,1.74-3.76c.22-4.13,0-8.28.1-12.42,0-1.87-.79-2.55-2.62-2.52-4,.07-7.92-.07-11.88.09a4.84,4.84,0,0,0-2.94,1.38c-2.65,2.67-5.12,5.51-7.68,8.26s-5,5.27-8,8.45a36,36,0,0,1-.46-3.63c0-3.85-.1-7.7,0-11.55.07-2.24-.76-3-3-3q-32.88.09-65.75,0c-2.19,0-2.83.8-2.8,2.89.1,6.26.17,12.52,0,18.77-.09,2.75.87,3.4,3.49,3.39,19.4-.1,38.81-.06,58.21-.05,1.07,0,2.14.14,3.7.25-.9,1.1-1.35,1.71-1.86,2.26q-31,33.53-62,67.08a6,6,0,0,0-1.44,3.55c-.18,4,0,8.08-.1,12.13,0,1.84.61,2.6,2.52,2.55,3.66-.09,7.35.18,11-.12a8.07,8.07,0,0,0,4.73-2c3.76-3.73,7.2-7.77,10.8-11.66C39.37,229.92,40.68,228.71,41.94,227.46Zm312.17-76.7c-1,.89-2,1.74-2.87,2.7-4.06,4.37-8,8.86-12.18,13.13-1.53,1.57-1.76,2.59-.57,4.6a33.9,33.9,0,0,1-14.75,48.41c-9.94,4.66-19.92,4.51-29.84-.3-1-.49-2.95-.85-3.47-.32-5.51,5.63-10.82,11.45-16.19,17.23,21.17,16.81,57.25,16.66,79.49-8.54C375.16,203.38,371.27,168.85,354.11,150.76Zm-208.7,85.58a56,56,0,0,0,31.31,11.44A58.91,58.91,0,0,0,216,236c26.4-19.48,31.59-58,11.19-83.6-1.37-1.73-2.17-1.57-3.55-.05-4,4.43-8.16,8.72-12.22,13.09-3.08,3.31-3,3.32-.87,7.16.56,1,1,2.07,1.48,3.12,7.71,17.32-1.78,38.89-19.74,45.13a34.92,34.92,0,0,1-27.75-1.7c-.87-.42-2.62-.43-3.16.13C156,224.77,150.85,230.46,145.41,236.34ZM264,226.77a5.13,5.13,0,0,0,.86-.56c5.07-5.42,10.18-10.8,15.1-16.34.55-.61.45-2.4-.05-3.22a33.67,33.67,0,0,1-4.9-20.66c1.88-24.34,28.14-38.92,49.68-27.54,1.61.85,2.71.94,3.93-.63,1.36-1.73,3-3.24,4.53-4.86q5.35-5.81,10.71-11.64c-18.18-15.27-53.18-17.52-76.34,5.24C244,169.75,245.26,206,264,226.77Zm-128.47,0c5.05-5.42,10-10.87,15.17-16.2,1.38-1.44,1.57-2.47.45-4.2a32,32,0,0,1-5.14-18.63c.78-25.28,27.58-40.9,50.14-29.28,1.63.84,2.63.69,3.67-.71a24.61,24.61,0,0,1,2-2.1l13.32-14.38c-19.28-15.78-54.37-17.34-77.33,6.29C113.35,172.81,118.52,209.4,135.57,226.81Z"/><path d="M41.94,227.46c-1.26,1.25-2.57,2.46-3.78,3.76-3.6,3.89-7,7.93-10.8,11.66a8.07,8.07,0,0,1-4.73,2c-3.64.3-7.33,0-11,.12-1.91.05-2.56-.71-2.52-2.55.09-4.05-.08-8.09.1-12.13a6,6,0,0,1,1.44-3.55q30.93-33.6,62-67.08c.51-.55,1-1.16,1.86-2.26-1.56-.11-2.63-.24-3.7-.25-19.4,0-38.81-.05-58.21.05-2.62,0-3.58-.64-3.49-3.39.19-6.25.12-12.51,0-18.77,0-2.09.61-2.89,2.8-2.89q32.87.09,65.75,0c2.27,0,3.1.78,3,3-.11,3.85,0,7.7,0,11.55a36,36,0,0,0,.46,3.63c3-3.18,5.53-5.8,8-8.45s5-5.59,7.68-8.26a4.84,4.84,0,0,1,2.94-1.38c4-.16,7.92,0,11.88-.09,1.83,0,2.65.65,2.62,2.52-.06,4.14.12,8.29-.1,12.42a6.67,6.67,0,0,1-1.74,3.76q-18.95,20.66-38,41.18Q62.81,204.6,51.26,217.15c-.62.67-1.14,1.43-2.15,2.73,1.79.1,2.87.22,4,.22,19.22,0,38.43.06,57.64,0,2.83,0,3.68.88,3.6,3.63-.16,6-.13,12.12,0,18.19,0,2.36-.75,3.17-3.17,3.16q-32.73-.1-65.46,0c-2.31,0-3-.76-3-3,.13-4.69,0-9.4,0-14.1Z"/><path d="M354.11,150.76c17.16,18.09,21.05,52.62-.38,76.91-22.24,25.2-58.32,25.35-79.49,8.54,5.37-5.78,10.68-11.6,16.19-17.23.52-.53,2.45-.17,3.47.32,9.92,4.81,19.9,5,29.84.3a33.9,33.9,0,0,0,14.75-48.41c-1.19-2-1-3,.57-4.6,4.17-4.27,8.12-8.76,12.18-13.13C352.14,152.5,353.15,151.65,354.11,150.76Z"/><path d="M145.41,236.34c5.44-5.88,10.62-11.57,16-17.1.54-.56,2.29-.55,3.16-.13a34.92,34.92,0,0,0,27.75,1.7c18-6.24,27.45-27.81,19.74-45.13-.47-1.05-.92-2.12-1.48-3.12-2.17-3.84-2.21-3.85.87-7.16,4.06-4.37,8.22-8.66,12.22-13.09,1.38-1.52,2.18-1.68,3.55.05C247.58,178,242.39,216.48,216,236a58.91,58.91,0,0,1-39.27,11.82A56,56,0,0,1,145.41,236.34Z"/><path d="M264,226.77c-18.78-20.76-20.09-57,3.52-80.21,23.16-22.76,58.16-20.51,76.34-5.24q-5.36,5.84-10.71,11.64c-1.51,1.62-3.17,3.13-4.53,4.86-1.22,1.57-2.32,1.48-3.93.63-21.54-11.38-47.8,3.2-49.68,27.54a33.67,33.67,0,0,0,4.9,20.66c.5.82.6,2.61.05,3.22-4.92,5.54-10,10.92-15.1,16.34A5.13,5.13,0,0,1,264,226.77Z"/><path d="M135.57,226.81c-17-17.41-22.22-54,2.27-79.21,23-23.63,58-22.07,77.33-6.29l-13.32,14.38a24.61,24.61,0,0,0-2,2.1c-1,1.4-2,1.55-3.67.71-22.56-11.62-49.36,4-50.14,29.28a32,32,0,0,0,5.14,18.63c1.12,1.73.93,2.76-.45,4.2C145.61,215.94,140.62,221.39,135.57,226.81Z"/></g></g></svg>