<svg xmlns="http://www.w3.org/2000/svg" viewBox="0 0 377.5 377.5"><defs><style>.cls-1{fill:none;}.cls-2{fill:#fff;}.cls-3{fill:#79bba4;}.cls-4{fill:#4aa181;}</style></defs><g id="Capa_2" data-name="Capa 2"><g id="Capa_1-2" data-name="Capa 1"><rect class="cls-1" width="377.5" height="377.5"/><rect class="cls-2" x="27.5" y="161.93" width="139.93" height="139.93" transform="translate(-99.31 75.2) rotate(-28.67)"/><rect class="cls-3" x="46.94" y="181.37" width="101.05" height="101.05" transform="translate(-99.31 75.2) rotate(-28.67)"/><path class="cls-2" d="M32,226.48a15.07,15.07,0,1,0-10.22-18.7A15.07,15.07,0,0,0,32,226.48Z"/><path class="cls-2" d="M102.17,261.43a15.07,15.07,0,1,0-10.23-18.7A15.06,15.06,0,0,0,102.17,261.43Z"/><path class="cls-4" d="M185,17.28h7.62a3.11,3.11,0,0,0,.9.4,38.35,38.35,0,0,1,22.76,11.16,4.42,4.42,0,0,0,2.82.88c4,.05,8.17-.62,12.1,0A38.39,38.39,0,0,1,262.6,77.78c-.4,1.54.09,2.4.81,3.62a133.75,133.75,0,0,1,6.47,11.95c1,2.24,1.35,4.82,2,7.24v9.65a3.42,3.42,0,0,0-.42.89c-3,16.4-12.55,26.88-28.5,31.65a3.87,3.87,0,0,0-2.11,2.08c-10.67,26.49-43.27,33.32-63.75,13.36a3.9,3.9,0,0,0-2.58-.83c-2.61.05-5.24.57-7.84.46a38.56,38.56,0,0,1-35.88-48.45,3.63,3.63,0,0,0-.75-3.65,38.51,38.51,0,0,1,19.74-61.3,4.18,4.18,0,0,0,3.14-2.78c4.94-12,13.73-19.65,26.19-23.1C181.05,18,183,17.71,185,17.28ZM206.87,34c-9.07-6.58-18.45-8.36-28.45-4.41-10.16,4-16.82,11.66-17.64,22.56-.95,12.63-.41,25.37-.48,38.06a2,2,0,0,0,.61,1.53c3.94,2.35,7.93,4.62,12.24,7.11,0-1.49,0-2.41,0-3.33,0-12.61.11-25.23,0-37.84a6.48,6.48,0,0,1,3.63-6.37c5.91-3.28,11.74-6.72,17.6-10.1C198.42,38.88,202.42,36.56,206.87,34Zm13.37,54.25v3.23c0,12.52-.08,25,.06,37.56,0,3.39-1.18,5.56-4.15,7.12-3.89,2-7.64,4.34-11.45,6.54q-8.88,5.12-17.74,10.25a3.52,3.52,0,0,0,.3.6,3.93,3.93,0,0,0,.57.5c8.7,6.1,18.11,7.4,27.87,3.24s16.17-11.68,16.92-22.27c.9-12.63.41-25.36.44-38a2.75,2.75,0,0,0-1.18-2C228.21,92.76,224.45,90.65,220.24,88.23ZM189.46,116.6c-1.06-.65-1.83-1.14-2.63-1.6-10.9-6.29-21.78-12.64-32.74-18.83a6.65,6.65,0,0,1-3.82-6.5c.11-10.49,0-21,0-31.48V55.56c-.45-.05-.64-.13-.77-.08-.63.25-1.26.5-1.86.81C138.14,61.2,132.5,69,131.8,79.67s3.48,19.71,12.65,25.51c10.13,6.41,20.7,12.13,31.11,18.1a2.49,2.49,0,0,0,2,.15C181.5,121.27,185.34,119,189.46,116.6Zm23.63-5.18c-1.27.68-2,1-2.73,1.46-10.91,6.28-21.84,12.51-32.7,18.88-2.7,1.59-5,1.74-7.78.07-5.48-3.34-11.1-6.45-16.66-9.66l-13-7.44a5.13,5.13,0,0,0-.36.92c-1,11.07,2.64,20.25,11.78,26.69s19.42,7.36,29.46,2.06c10.38-5.48,20.42-11.6,30.58-17.5A2.85,2.85,0,0,0,213,125C213.15,120.65,213.09,116.27,213.09,111.42Zm40.36-38.8c1.23-11.86-2.32-21.29-11.74-27.91S222,37.49,211.77,43s-20,11.39-29.89,17.17c-.63.37-1.41,1.18-1.42,1.8-.13,4.46-.07,8.92-.07,13.72,1.1-.58,1.91-1,2.69-1.42Q199.78,64.61,216.45,55a6,6,0,0,1,6.65,0c3.9,2.36,7.87,4.62,11.81,6.91ZM204,70.46c1,.64,1.81,1.13,2.6,1.59,11,6.36,21.9,12.77,32.92,19a6.88,6.88,0,0,1,3.93,6.72c-.14,10.41,0,20.82,0,31.23v3c1.15-.48,1.94-.74,2.67-1.12,9.48-5.05,14.93-12.94,15.57-23.64.66-11.12-3.94-20-13.44-25.86-9.86-6.07-20-11.66-30.06-17.4a2.84,2.84,0,0,0-2.27-.32C212,65.78,208.13,68.06,204,70.46Zm8.94,23.08h.16c0-2.53.14-5.08-.07-7.59a4,4,0,0,0-1.53-2.72c-4.38-2.69-8.85-5.25-13.37-7.7a3.48,3.48,0,0,0-2.86,0q-6.79,3.68-13.38,7.71a3.48,3.48,0,0,0-1.44,2.5q-.19,7.73,0,15.45a3.53,3.53,0,0,0,1.4,2.53q6.69,4.08,13.59,7.84a3.37,3.37,0,0,0,2.68,0c2.34-1.15,4.58-2.53,6.82-3.87,2.68-1.59,6.38-2.63,7.7-5S212.94,96.65,212.94,93.54Z"/><path class="cls-2" d="M242.26,160.29,363,192.91l-8.66,36.6-5.11-1.38q.87-18.1-3.53-24.84t-22.95-11.74l-11.89-3.21L281.35,297.62Q278,310,281.08,314t15.84,8.45l-1.07,4L233.6,309.56l1.07-4q13.83,2.63,18.1.1t8-16.33L289.6,182.59l-12-3.23q-17.73-4.8-25.52-1.42t-15.67,19.71l-5.22-1.41Z"/><path class="cls-4" d="M148.29,219.53,166,252,77.37,300.46,54.69,259c3.55-8.27,9.34-15.47,18.73-16.62,23.33-2.85,38.8,23.06,48.14,1.71C127.69,230.05,138.41,221.55,148.29,219.53Z"/></g></g></svg>